<mxfile host="Electron" modified="2023-10-02T14:51:48.017Z" agent="Mozilla/5.0 (Windows NT 10.0; Win64; x64) AppleWebKit/537.36 (KHTML, like Gecko) draw.io/22.0.0 Chrome/114.0.5735.289 Electron/25.8.3 Safari/537.36" etag="RnFix1vekh0woxqfRBJM" version="22.0.0" type="device">
  <diagram name="Page-1" id="xH7td5ByqNq2DQfZ70Jm">
    <mxGraphModel dx="1418" dy="828" grid="0" gridSize="10" guides="1" tooltips="1" connect="1" arrows="1" fold="1" page="1" pageScale="1" pageWidth="827" pageHeight="1169" math="0" shadow="0">
      <root>
        <mxCell id="0" />
        <mxCell id="1" parent="0" />
        <mxCell id="oBFB-ppYuwsBqPFvOYvf-1" value="" style="rounded=0;whiteSpace=wrap;html=1;" vertex="1" parent="1">
          <mxGeometry x="89" y="300" width="650" height="400" as="geometry" />
        </mxCell>
        <mxCell id="oBFB-ppYuwsBqPFvOYvf-2" value="&lt;font style=&quot;font-size: 18px;&quot;&gt;(MAP)&lt;/font&gt;" style="rounded=0;whiteSpace=wrap;html=1;fillColor=#bac8d3;strokeColor=#23445d;" vertex="1" parent="1">
          <mxGeometry x="607" y="313" width="116" height="116" as="geometry" />
        </mxCell>
        <mxCell id="oBFB-ppYuwsBqPFvOYvf-3" value="(HEALTH BAR)" style="rounded=0;whiteSpace=wrap;html=1;" vertex="1" parent="1">
          <mxGeometry x="100" y="327" width="150" height="20" as="geometry" />
        </mxCell>
        <mxCell id="oBFB-ppYuwsBqPFvOYvf-4" value="(FAITH BAR)" style="rounded=0;whiteSpace=wrap;html=1;" vertex="1" parent="1">
          <mxGeometry x="100" y="357" width="150" height="20" as="geometry" />
        </mxCell>
        <mxCell id="oBFB-ppYuwsBqPFvOYvf-5" value="" style="rounded=0;whiteSpace=wrap;html=1;" vertex="1" parent="1">
          <mxGeometry x="160" y="623" width="45" height="60" as="geometry" />
        </mxCell>
        <mxCell id="oBFB-ppYuwsBqPFvOYvf-6" value="" style="rounded=0;whiteSpace=wrap;html=1;" vertex="1" parent="1">
          <mxGeometry x="205" y="623" width="45" height="60" as="geometry" />
        </mxCell>
        <mxCell id="oBFB-ppYuwsBqPFvOYvf-7" value="" style="rounded=0;whiteSpace=wrap;html=1;" vertex="1" parent="1">
          <mxGeometry x="250" y="623" width="45" height="60" as="geometry" />
        </mxCell>
        <mxCell id="oBFB-ppYuwsBqPFvOYvf-8" value="" style="rounded=0;whiteSpace=wrap;html=1;" vertex="1" parent="1">
          <mxGeometry x="295" y="623" width="45" height="60" as="geometry" />
        </mxCell>
        <mxCell id="oBFB-ppYuwsBqPFvOYvf-9" value="" style="rounded=0;whiteSpace=wrap;html=1;" vertex="1" parent="1">
          <mxGeometry x="340" y="623" width="45" height="60" as="geometry" />
        </mxCell>
        <mxCell id="oBFB-ppYuwsBqPFvOYvf-10" value="" style="rounded=0;whiteSpace=wrap;html=1;" vertex="1" parent="1">
          <mxGeometry x="385" y="623" width="45" height="60" as="geometry" />
        </mxCell>
        <mxCell id="oBFB-ppYuwsBqPFvOYvf-11" value="" style="rounded=0;whiteSpace=wrap;html=1;" vertex="1" parent="1">
          <mxGeometry x="430" y="623" width="45" height="60" as="geometry" />
        </mxCell>
        <mxCell id="oBFB-ppYuwsBqPFvOYvf-12" value="" style="rounded=0;whiteSpace=wrap;html=1;" vertex="1" parent="1">
          <mxGeometry x="475" y="623" width="45" height="60" as="geometry" />
        </mxCell>
        <mxCell id="oBFB-ppYuwsBqPFvOYvf-13" value="" style="rounded=0;whiteSpace=wrap;html=1;" vertex="1" parent="1">
          <mxGeometry x="520" y="623" width="45" height="60" as="geometry" />
        </mxCell>
      </root>
    </mxGraphModel>
  </diagram>
</mxfile>
